<?xml version="1.0" encoding="iso-8859-1"?>
<!DOCTYPE svg PUBLIC "-//W3C//DTD SVG 1.1//EN" "http://www.w3.org/Graphics/SVG/1.1/DTD/svg11.dtd">
<svg xmlns:mydata="http://www.w3.org/2000/svg" mydata:contrastcolor="ffffff" mydata:template="Default" mydata:presentation="2.5" mydata:layouttype="undefined" mydata:specialfontid="undefined" mydata:id1="631" mydata:id2="756" mydata:companyname="NEAT INTERVALS" mydata:companytagline="" version="1.1" xmlns="http://www.w3.org/2000/svg" xmlns:xlink="http://www.w3.org/1999/xlink" style="height: 291px;" viewBox="0 0 550 470"><g fill="#009f4d" fill-rule="nonzero" stroke="none" stroke-width="1" stroke-linecap="butt" stroke-linejoin="miter" stroke-miterlimit="10" stroke-dasharray="" stroke-dashoffset="0" font-family="none" font-weight="none" font-size="none" text-anchor="none" style="mix-blend-mode: normal"><g data-paper-data="{&quot;isGlobalGroup&quot;:true,&quot;bounds&quot;:{&quot;x&quot;:114.15197218999498,&quot;y&quot;:155.40111973367542,&quot;width&quot;:321.69605562001,&quot;height&quot;:159.1977605326492}}"><g data-paper-data="{&quot;stacked&quot;:true,&quot;isPrimaryText&quot;:true}" id="element-id-9631"><path d="M180.66955,155.40143v74.68593l-49.93957,-74.66805l-0.00894,-0.01787h-16.56907v95.38386h13.80756v-74.68593l49.93063,74.66805l0.00894,0.01787h16.578v-95.38386z" data-paper-data="{&quot;glyphName&quot;:&quot;N&quot;,&quot;glyphIndex&quot;:0,&quot;firstGlyphOfWord&quot;:true,&quot;word&quot;:1,&quot;line&quot;:1,&quot;firstGlyphOfFirstLine&quot;:true}" id="element-id-59617"></path><path d="M283.56659,169.20899v-13.80756h-80.33407v95.38386h80.33407v-13.80756h-66.52651v-26.98059h45.52472v-13.80756h-45.52472v-26.98059z" data-paper-data="{&quot;glyphName&quot;:&quot;E&quot;,&quot;glyphIndex&quot;:1,&quot;word&quot;:1,&quot;line&quot;:1}" id="element-id-76473"></path><path d="M339.79547,155.42836l-0.00954,-0.02724h-14.58524l-32.86991,95.32164l-0.01771,0.06266h14.60295l6.36368,-18.4454h38.42859l6.35414,18.41815l0.01771,0.02724h14.59341zM318.03339,218.53254l14.45993,-41.91417l14.45993,41.91417z" data-paper-data="{&quot;glyphName&quot;:&quot;A&quot;,&quot;glyphIndex&quot;:2,&quot;word&quot;:1,&quot;line&quot;:1}" id="element-id-57948"></path><path d="M355.51396,155.40143v13.80756h33.26325v81.5763h13.80756v-81.5763h33.26325v-13.80756z" data-paper-data="{&quot;glyphName&quot;:&quot;T&quot;,&quot;glyphIndex&quot;:3,&quot;lastGlyphOfWord&quot;:true,&quot;word&quot;:1,&quot;line&quot;:1,&quot;lastGlyphOfFirstLine&quot;:true}" id="element-id-35582"></path><path d="M116.47901,314.59753v-47.22311h-2.32704v47.22311z" data-paper-data="{&quot;glyphName&quot;:&quot;I&quot;,&quot;glyphIndex&quot;:4,&quot;firstGlyphOfWord&quot;:true,&quot;word&quot;:2,&quot;fontStyleEffect&quot;:true,&quot;line&quot;:2,&quot;firstGlyphOfSecondLine&quot;:true}" id="element-id-10811"></path><path d="M168.65847,267.37307v47.22514h2.32714v-44.898h18.73239v-2.32714zM164.01094,267.37307h-21.05953v2.32714h18.73307v41.88911l-34.52873,-44.20883l-0.00674,-0.00877h-2.90909l-0.0526,0.00135l0.03102,0.02967v47.19547h2.32714v-44.21625l34.52873,44.20815l0.00607,0.00877h2.90909l0.05327,-0.00067l-0.03169,-0.03102z" data-paper-data="{&quot;glyphName&quot;:&quot;&quot;,&quot;glyphIndex&quot;:5,&quot;word&quot;:2,&quot;fontStyleEffect&quot;:true,&quot;line&quot;:2}" id="element-id-83618"></path><path d="M216.39342,292.14871v-2.32714h-13.68301v2.32714zM197.47282,269.69997h37.46559v-2.32714h-39.79274v47.2253h39.79274v-2.32782h-37.46559zM268.19613,300.2165c3.24627,-1.16121 6.02792,-3.26178 8.04824,-6.07579c2.06887,-2.8828 3.16198,-6.28888 3.16198,-9.85007c0,-4.51874 -1.76002,-8.76708 -4.95572,-11.96345c-3.19569,-3.19569 -7.4447,-4.95572 -11.96345,-4.95572h-22.90055v31.50714h-37.46559v2.32714h37.46492v13.39304h2.32714v-13.39304h20.57408c1.10524,0 2.20913,-0.10789 3.28268,-0.32099l10.70311,13.70526l0.00674,0.00877h2.94956zM264.17033,298.78084c-0.53677,0.06474 -1.10322,0.09778 -1.68315,0.09778h-20.57341v-29.17999h20.57341c8.04621,0 14.59202,6.54648 14.59202,14.59202c0,6.40285 -4.2834,12.15226 -10.41651,13.98242c-0.81662,0.24209 -1.65483,0.4127 -2.49236,0.50778z" data-paper-data="{&quot;glyphName&quot;:&quot;&quot;,&quot;glyphIndex&quot;:6,&quot;word&quot;:2,&quot;fontStyleEffect&quot;:true,&quot;line&quot;:2}" id="element-id-82964"></path><path d="M298.32502,314.59753h2.4855l18.71473,-47.19345l0.01146,-0.02967h-2.50168l-17.46727,44.04578l-17.46052,-44.03229l-0.00539,-0.01349h-2.5037l18.7208,47.20895z" data-paper-data="{&quot;glyphName&quot;:&quot;V&quot;,&quot;glyphIndex&quot;:7,&quot;word&quot;:2,&quot;fontStyleEffect&quot;:true,&quot;line&quot;:2}" id="element-id-26341"></path><path d="M317.28094,305.46538h27.69044l3.61564,9.11799l0.00607,0.01416h2.50303l-18.7208,-47.20963l-0.00607,-0.01349h-2.4855l-18.71474,47.19277l-0.01146,0.03034h2.50168zM318.20339,303.13835l12.92378,-32.58659l12.92176,32.58659z" data-paper-data="{&quot;glyphName&quot;:&quot;A&quot;,&quot;glyphIndex&quot;:8,&quot;word&quot;:2,&quot;fontStyleEffect&quot;:true,&quot;line&quot;:2}" id="element-id-96004"></path><path d="M395.11756,312.27044h-37.46301v-44.89587h-2.32702v47.2229h39.79004z" data-paper-data="{&quot;glyphName&quot;:&quot;L&quot;,&quot;glyphIndex&quot;:9,&quot;word&quot;:2,&quot;fontStyleEffect&quot;:true,&quot;line&quot;:2}" id="element-id-95488"></path><path d="M408.44979,314.59747h15.01566c6.82849,0 12.38257,-5.55679 12.38257,-12.3873c0,-3.30939 -1.28789,-6.42054 -3.62698,-8.75964c-2.33842,-2.33977 -5.44755,-3.62765 -8.75559,-3.62765h-15.02038c-5.54465,0 -10.05562,-4.51299 -10.05562,-10.06034c0,-5.54735 4.51097,-10.06034 10.05562,-10.06034h15.01566c5.54735,0 10.06034,4.51299 10.06034,10.06034v0.02225h2.32696v-0.02225c0,-6.83051 -5.55679,-12.38797 -12.3873,-12.38797h-15.01566c-6.82781,0 -12.38257,5.55746 -12.38257,12.38797c0,3.30872 1.28789,6.41987 3.62698,8.75964c2.33842,2.3391 5.44755,3.62765 8.75559,3.62765h15.02038c5.54465,0 10.05562,4.51299 10.05562,10.06034c0,5.54735 -4.51097,10.06034 -10.05562,10.06034h-15.01566c-5.54735,0 -10.06034,-4.51299 -10.06034,-10.06034v-0.02225h-2.32696v0.02225c0,6.83051 5.55679,12.3873 12.3873,12.3873z" data-paper-data="{&quot;glyphName&quot;:&quot;S&quot;,&quot;glyphIndex&quot;:10,&quot;lastGlyphOfWord&quot;:true,&quot;word&quot;:2,&quot;fontStyleEffect&quot;:true,&quot;line&quot;:2,&quot;lastGlyphOfSecondLine&quot;:true}" id="element-id-99199"></path></g></g></g></svg>