<?xml version="1.0" encoding="iso-8859-1"?>
<!DOCTYPE svg PUBLIC "-//W3C//DTD SVG 1.1//EN" "http://www.w3.org/Graphics/SVG/1.1/DTD/svg11.dtd">
<svg xmlns:mydata="http://www.w3.org/2000/svg" mydata:contrastcolor="006A8E" mydata:template="InvertedHex1" mydata:presentation="2.5" mydata:layouttype="undefined" mydata:specialfontid="undefined" mydata:id1="479" mydata:id2="072" mydata:companyname="NEAT INTERVALS" mydata:companytagline="" version="1.1" xmlns="http://www.w3.org/2000/svg" xmlns:xlink="http://www.w3.org/1999/xlink" viewBox="106.06824114453269 159.56145001252898 337.86351771093456 150.877099974942"><g fill="#4E008E" fill-rule="nonzero" stroke="none" stroke-width="1" stroke-linecap="butt" stroke-linejoin="miter" stroke-miterlimit="10" stroke-dasharray="" stroke-dashoffset="0" font-family="none" font-weight="none" font-size="none" text-anchor="none" style="mix-blend-mode: normal"><g data-paper-data="{&quot;isGlobalGroup&quot;:true,&quot;bounds&quot;:{&quot;x&quot;:106.06824114453269,&quot;y&quot;:159.56145001252898,&quot;width&quot;:337.86351771093456,&quot;height&quot;:150.877099974942}}"><g data-paper-data="{&quot;stacked&quot;:true,&quot;isPrimaryText&quot;:true}"><path d="M175.80327,251.46033c0.27029,0 0.81087,0 1.08116,0c1.89204,-0.54058 2.9732,-2.16233 2.9732,-4.05436v-83.79015c0,-2.16233 -1.89204,-4.05436 -4.05436,-4.05436c-2.43262,0 -4.32465,1.89204 -4.32465,4.05436v71.89736l-58.11253,-74.32997c-1.08116,-1.35145 -2.9732,-1.89204 -4.59494,-1.35145c-1.62174,0.54058 -2.70291,2.16233 -2.70291,3.78407v83.79015c0,2.43262 1.62174,4.05436 4.05436,4.05436c2.16233,0 4.05436,-1.62174 4.05436,-4.05436v-71.89736l58.38282,74.60026c0.81087,0.81087 1.89204,1.35145 3.24349,1.35145z" data-paper-data="{&quot;glyphName&quot;:&quot;N&quot;,&quot;glyphIndex&quot;:0,&quot;firstGlyphOfWord&quot;:true,&quot;word&quot;:1,&quot;line&quot;:1,&quot;firstGlyphOfFirstLine&quot;:true}" style="fill: rgb(237, 139, 0);"></path><path d="M257.70139,251.46033c2.16233,0 4.05436,-1.62174 4.05436,-4.05436c0,-2.16233 -1.89204,-4.05436 -4.05436,-4.05436h-65.68067c-2.43262,0 -4.05436,1.89204 -4.05436,4.05436c0,2.43262 1.62174,4.05436 4.05436,4.05436zM258.24197,209.83554c2.16233,0 4.05436,-1.89204 4.05436,-4.32465c0,-2.16233 -1.89204,-4.05436 -4.05436,-4.05436h-66.22125c-2.43262,0 -4.05436,1.89204 -4.05436,4.05436c0,2.43262 1.62174,4.32465 4.05436,4.32465zM257.70139,167.94047c2.16233,0 4.05436,-1.89204 4.05436,-4.32465c0,-2.16233 -1.89204,-4.05436 -4.05436,-4.05436h-65.68067c-2.43262,0 -4.05436,1.89204 -4.05436,4.05436c0,2.43262 1.62174,4.32465 4.05436,4.32465z" data-paper-data="{&quot;glyphName&quot;:&quot;E&quot;,&quot;glyphIndex&quot;:1,&quot;word&quot;:1,&quot;line&quot;:1}" style="fill: rgb(237, 139, 0);"></path><path d="M357.70899,251.46033c0.54058,0 1.35145,0 1.89204,-0.27029c1.89204,-1.08116 2.70291,-3.51378 1.89204,-5.40582l-41.62479,-83.79015c-0.81087,-1.35145 -2.16233,-2.43262 -3.78407,-2.43262c-1.62174,0 -2.9732,1.08116 -3.51378,2.43262l-41.62479,83.79015c-1.08116,1.89204 -0.27029,4.32465 1.89204,5.40582c1.89204,1.08116 4.32465,0.27029 5.40582,-1.89204l37.84071,-76.4923l37.84071,76.4923c0.81087,1.35145 2.16233,2.16233 3.78407,2.16233z" data-paper-data="{&quot;glyphName&quot;:&quot;A&quot;,&quot;glyphIndex&quot;:2,&quot;word&quot;:1,&quot;line&quot;:1}" style="fill: rgb(237, 139, 0);"></path><path d="M406.90192,251.46033c2.16233,0 4.05436,-1.62174 4.05436,-4.05436v-79.4655h28.92112c2.16233,0 4.05436,-1.89204 4.05436,-4.32465c0,-2.16233 -1.89204,-4.05436 -4.05436,-4.05436h-65.68067c-2.43262,0 -4.05436,1.89204 -4.05436,4.05436c0,2.43262 1.62174,4.32465 4.05436,4.32465h28.65083v79.4655c0,2.43262 1.89204,4.05436 4.05436,4.05436z" data-paper-data="{&quot;glyphName&quot;:&quot;T&quot;,&quot;glyphIndex&quot;:3,&quot;lastGlyphOfWord&quot;:true,&quot;word&quot;:1,&quot;line&quot;:1,&quot;lastGlyphOfFirstLine&quot;:true}" style="fill: rgb(237, 139, 0);"></path><path d="M108.02498,310.33888c1.17404,0 1.95674,-0.7827 1.95674,-1.95674v-41.8742c0,-1.04359 -0.7827,-1.95674 -1.95674,-1.95674c-1.04359,0 -1.95674,0.91314 -1.95674,1.95674v41.8742c0,1.17404 0.91314,1.95674 1.95674,1.95674z" data-paper-data="{&quot;glyphName&quot;:&quot;I&quot;,&quot;glyphIndex&quot;:4,&quot;firstGlyphOfWord&quot;:true,&quot;word&quot;:2,&quot;line&quot;:2,&quot;firstGlyphOfSecondLine&quot;:true}" style="fill: rgb(237, 139, 0);"></path><path d="M147.5511,310.33888c0.13045,0 0.39135,0 0.5218,0c0.91314,-0.2609 1.43494,-1.04359 1.43494,-1.95674v-40.43926c0,-1.04359 -0.91314,-1.95674 -1.95674,-1.95674c-1.17404,0 -2.08719,0.91314 -2.08719,1.95674v34.6995l-28.04659,-35.87354c-0.5218,-0.65225 -1.43494,-0.91314 -2.21764,-0.65225c-0.7827,0.2609 -1.30449,1.04359 -1.30449,1.82629v40.43926c0,1.17404 0.7827,1.95674 1.95674,1.95674c1.04359,0 1.95674,-0.7827 1.95674,-1.95674v-34.6995l28.17703,36.00399c0.39135,0.39135 0.91314,0.65225 1.56539,0.65225z" data-paper-data="{&quot;glyphName&quot;:&quot;N&quot;,&quot;glyphIndex&quot;:5,&quot;word&quot;:2,&quot;line&quot;:2}" style="fill: rgb(237, 139, 0);"></path><path d="M171.16241,310.33888c1.04359,0 1.95674,-0.7827 1.95674,-1.95674v-38.35207h13.95807c1.04359,0 1.95674,-0.91314 1.95674,-2.08719c0,-1.04359 -0.91314,-1.95674 -1.95674,-1.95674h-31.69916c-1.17404,0 -1.95674,0.91314 -1.95674,1.95674c0,1.17404 0.7827,2.08719 1.95674,2.08719h13.82762v38.35207c0,1.17404 0.91314,1.95674 1.95674,1.95674z" data-paper-data="{&quot;glyphName&quot;:&quot;T&quot;,&quot;glyphIndex&quot;:6,&quot;word&quot;:2,&quot;line&quot;:2}" style="fill: rgb(237, 139, 0);"></path><path d="M226.60333,310.33888c1.04359,0 1.95674,-0.7827 1.95674,-1.95674c0,-1.04359 -0.91314,-1.95674 -1.95674,-1.95674h-31.69916c-1.17404,0 -1.95674,0.91314 -1.95674,1.95674c0,1.17404 0.7827,1.95674 1.95674,1.95674zM226.86423,290.2497c1.04359,0 1.95674,-0.91314 1.95674,-2.08719c0,-1.04359 -0.91314,-1.95674 -1.95674,-1.95674h-31.96006c-1.17404,0 -1.95674,0.91314 -1.95674,1.95674c0,1.17404 0.7827,2.08719 1.95674,2.08719zM226.60333,270.03007c1.04359,0 1.95674,-0.91314 1.95674,-2.08719c0,-1.04359 -0.91314,-1.95674 -1.95674,-1.95674h-31.69916c-1.17404,0 -1.95674,0.91314 -1.95674,1.95674c0,1.17404 0.7827,2.08719 1.95674,2.08719z" data-paper-data="{&quot;glyphName&quot;:&quot;E&quot;,&quot;glyphIndex&quot;:7,&quot;word&quot;:2,&quot;line&quot;:2}" style="fill: rgb(237, 139, 0);"></path><path d="M254.51947,290.2497h1.69584c6.65291,0 12.13178,-5.47887 12.13178,-12.13178c0,-6.65291 -5.47887,-12.13178 -12.13178,-12.13178h-21.52412c-1.17404,0 -1.95674,0.91314 -1.95674,1.95674v40.43926c0,1.17404 0.7827,1.95674 1.95674,1.95674c1.04359,0 1.95674,-0.7827 1.95674,-1.95674v-38.35207h19.56739c4.43527,0 8.08785,3.65258 8.08785,8.08785c0,4.43527 -3.65258,8.08785 -8.08785,8.08785h-5.73977v0c-0.13045,0 -0.13045,0 -0.2609,0c0,0.13045 -0.13045,0.13045 -0.13045,0.13045c-0.13045,0 -0.13045,0 -0.2609,0c0,0 -0.13045,0 -0.13045,0.13045h-0.13045c-0.13045,0.13045 -0.13045,0.13045 -0.2609,0.13045v0c0,0.13045 0,0.13045 -0.13045,0.13045c0,0 0,0.13045 -0.13045,0.13045c0,0.13045 0,0.13045 -0.13045,0.13045c0,0.13045 0,0.13045 -0.13045,0.2609c0,0 0,0 0,0.13045l-0.13045,0.13045c0,0.13045 0,0.13045 0,0.2609c0,0 0,0 -0.13045,0.13045c0,0 0,0.13045 0,0.2609v0c0,0.13045 0,0.13045 0,0.13045c0,0 0,0.13045 0,0.2609c0,0 0.13045,0 0.13045,0.13045v0.13045c0,0.13045 0,0.13045 0.13045,0.2609v0.13045c0.13045,0 0.13045,0.13045 0.13045,0.13045v0.13045l15.91481,20.21963c0.39135,0.39135 0.91314,0.65225 1.56539,0.65225c0.39135,0 0.7827,-0.13045 1.17404,-0.39135c0.7827,-0.65225 1.04359,-1.82629 0.2609,-2.73943z" data-paper-data="{&quot;glyphName&quot;:&quot;R&quot;,&quot;glyphIndex&quot;:8,&quot;word&quot;:2,&quot;line&quot;:2}" style="fill: rgb(237, 139, 0);"></path><path d="M294.30649,310.33888c0.7827,0 1.43494,-0.39135 1.82629,-1.04359l20.08918,-40.43926c0.39135,-0.91314 0,-2.08719 -0.91314,-2.60898c-1.04359,-0.5218 -2.21764,-0.13045 -2.73943,0.91314l-18.26289,36.78668l-18.26289,-36.78668c-0.5218,-1.04359 -1.69584,-1.43494 -2.60898,-0.91314c-1.04359,0.5218 -1.43494,1.69584 -0.91314,2.60898l20.08918,40.43926c0.2609,0.65225 0.91314,1.04359 1.69584,1.04359z" data-paper-data="{&quot;glyphName&quot;:&quot;V&quot;,&quot;glyphIndex&quot;:9,&quot;word&quot;:2,&quot;line&quot;:2}" style="fill: rgb(237, 139, 0);"></path><path d="M362.53144,310.33888c0.2609,0 0.65225,0 0.91314,-0.13045c0.91314,-0.5218 1.30449,-1.69584 0.91314,-2.60898l-20.08918,-40.43926c-0.39135,-0.65225 -1.04359,-1.17404 -1.82629,-1.17404c-0.7827,0 -1.43494,0.5218 -1.69584,1.17404l-20.08918,40.43926c-0.5218,0.91314 -0.13045,2.08719 0.91314,2.60898c0.91314,0.5218 2.08719,0.13045 2.60898,-0.91314l18.26289,-36.91713l18.26289,36.91713c0.39135,0.65225 1.04359,1.04359 1.82629,1.04359z" data-paper-data="{&quot;glyphName&quot;:&quot;A&quot;,&quot;glyphIndex&quot;:10,&quot;word&quot;:2,&quot;line&quot;:2}" style="fill: rgb(237, 139, 0);"></path><path d="M402.188,310.33888c1.04359,0 1.95674,-0.7827 1.95674,-1.95674c0,-1.04359 -0.91314,-1.95674 -1.95674,-1.95674h-29.74243v-38.48252c0,-1.04359 -0.91314,-1.95674 -1.95674,-1.95674c-1.17404,0 -1.95674,0.91314 -1.95674,1.95674v40.43926c0,1.17404 0.7827,1.95674 1.95674,1.95674z" data-paper-data="{&quot;glyphName&quot;:&quot;L&quot;,&quot;glyphIndex&quot;:11,&quot;word&quot;:2,&quot;line&quot;:2}" style="fill: rgb(237, 139, 0);"></path><path d="M425.92976,310.33888c10.04459,0 18.00199,-5.21797 18.00199,-12.00133c0,-6.78336 -7.9574,-12.13178 -18.00199,-12.13178c-7.56606,0 -13.95807,-3.65258 -13.95807,-8.08785c0,-4.43527 6.39201,-8.08785 13.95807,-8.08785c4.30482,0 8.34875,1.17404 11.08818,3.13078l0.13045,0.13045c0.65225,0.5218 1.30449,1.17404 1.69584,1.69584c0.65225,0.91314 1.95674,1.04359 2.73943,0.5218c0.91314,-0.65225 1.17404,-1.95674 0.5218,-2.86988c-2.73943,-3.65258 -8.08785,-6.13111 -14.08852,-6.52246c-0.13045,0 -0.2609,0 -0.39135,0c-0.5218,-0.13045 -1.04359,-0.13045 -1.69584,-0.13045c-10.04459,0 -17.87155,5.34842 -17.87155,12.13178c0,6.78336 7.82695,12.13178 17.87155,12.13178c7.56606,0 14.08852,3.65258 14.08852,8.08785c0,4.43527 -6.52246,8.08785 -14.08852,8.08785c-4.30482,0 -8.34875,-1.17404 -10.95774,-3.13078c-0.13045,0 -0.13045,-0.13045 -0.13045,-0.13045c-0.7827,-0.5218 -1.30449,-1.17404 -1.82629,-1.69584c-0.65225,-0.91314 -1.82629,-1.17404 -2.73943,-0.5218c-0.91314,0.65225 -1.04359,1.95674 -0.39135,2.73943c2.60898,3.78303 7.9574,6.26156 14.08852,6.65291c0.13045,0 0.2609,0 0.39135,0c0.5218,0 1.04359,0 1.56539,0z" data-paper-data="{&quot;glyphName&quot;:&quot;S&quot;,&quot;glyphIndex&quot;:12,&quot;lastGlyphOfWord&quot;:true,&quot;word&quot;:2,&quot;line&quot;:2,&quot;lastGlyphOfSecondLine&quot;:true}" style="fill: rgb(237, 139, 0);"></path></g></g></g><g class="watermark-group" style="opacity:0.040000010281801224"></g></svg>